<svg xmlns="http://www.w3.org/2000/svg" version="1.1" xmlns:xlink="http://www.w3.org/1999/xlink" xmlns:svgjs="http://svgjs.com/svgjs" width="1980" height="1000" preserveAspectRatio="none" viewBox="0 0 1980 1000">
    <g mask="url(&quot;#SvgjsMask1628&quot;)" fill="none">
        <path class="boucing" d="M1008.21 729.63a36.32 36.32 0 1 0 25.63 67.97z" fill="rgba(136, 184, 106, 1)"></path>
        <path class="boucing" d="M1394.79 625.98L1457.23 625.98L1457.23 719.62L1394.79 719.62z" fill="rgba(255, 203, 101, 1)"></path>
        <path class="vibrating" d="M422.9 591.64L487.12 591.64L487.12 655.86L422.9 655.86z" fill="rgba(136, 184, 106, 1)"></path>
        <path class="vibrating" d="M650.94 963.74L679.73 963.74L679.73 997.33L650.94 997.33z" stroke="rgba(129, 148, 212, 1)"></path>
        <path class="boucing" d="M1035.3 544.78L1070.46 544.78L1070.46 579.94L1035.3 579.94z" fill="rgba(222, 99, 128, 1)"></path>
        <path class="shaking" d="M1594.93 932.21L1639.41 932.21L1639.41 979.97L1594.93 979.97z" fill="rgba(255, 203, 101, 1)"></path>
        <path class="shaking" d="M466.42 65.58 a40.6 40.6 0 1 0 81.2 0 a40.6 40.6 0 1 0 -81.2 0z" fill="rgba(129, 148, 212, 1)"></path>
        <path class="vibrating" d="M49.84 164.27L82.66 164.27L82.66 197.09L49.84 197.09z" stroke="rgba(136, 184, 106, 1)"></path>
        <path class="bouncing" d="M1665.65 833.11 a51.29 51.29 0 1 0 102.58 0 a51.29 51.29 0 1 0 -102.58 0z" stroke="rgba(222, 99, 128, 1)"></path>
        <path class="shaking" d="M640.58 732.33 a43.67 43.67 0 1 0 87.34 0 a43.67 43.67 0 1 0 -87.34 0z" stroke="rgba(136, 184, 106, 1)"></path>
        <path class="boucing" d="M1214.85 238.19 a0.24 0.24 0 1 0 0.48 0 a0.24 0.24 0 1 0 -0.48 0z" fill="rgba(255, 203, 101, 1)"></path>
        <path class="shaking" d="M130.66 56.91a51.02 51.02 0 1 0 75.57 68.57z" stroke="rgba(136, 184, 106, 1)"></path>
        <path class="vibrating" d="M716.73 577.04a32.63 32.63 0 1 0-20.59 61.92z" fill="rgba(222, 99, 128, 1)"></path>
        <path class="bouncing" d="M863.77 259.3L908.78 259.3L908.78 311.98L863.77 311.98z" stroke="rgba(255, 203, 101, 1)"></path>
        <path class="boucing" d="M462.57 297.31 a4.42 4.42 0 1 0 8.84 0 a4.42 4.42 0 1 0 -8.84 0z" stroke="rgba(136, 184, 106, 1)"></path>
        <path class="bouncing" d="M712.66 128.49L779.34 128.49L779.34 190.13L712.66 190.13z" fill="rgba(255, 203, 101, 1)"></path>
        <path class="shaking" d="M97.07 455.33a57.15 57.15 0 1 0 93.44 65.83z" fill="rgba(136, 184, 106, 1)"></path>
        <path class="vibrating" d="M1280.73 653.08 a26.08 26.08 0 1 0 52.16 0 a26.08 26.08 0 1 0 -52.16 0z" fill="rgba(129, 148, 212, 1)"></path>
        <path class="boucing" d="M1526.95 612.76L1575.49 612.76L1575.49 694.79L1526.95 694.79z" fill="rgba(129, 148, 212, 1)"></path>
        <path class="shaking" d="M232.37 888.21 a38.74 38.74 0 1 0 77.48 0 a38.74 38.74 0 1 0 -77.48 0z" fill="rgba(222, 99, 128, 1)"></path>
        <path class="vibrating" d="M571.88 170.46a45.52 45.52 0 1 0-77.54 47.7z" fill="rgba(136, 184, 106, 1)"></path>
        <path class="vibrating" d="M1539.61 745.17 a36.24 36.24 0 1 0 72.48 0 a36.24 36.24 0 1 0 -72.48 0z" stroke="rgba(222, 99, 128, 1)"></path>
        <path class="boucing" d="M11.43 398.99L69.06 398.99L69.06 468.94L11.43 468.94z" fill="rgba(222, 99, 128, 1)"></path>
        <path class="shaking" d="M38.07 564.18L84.56 564.18L84.56 589.29L38.07 589.29z" stroke="rgba(129, 148, 212, 1)"></path>
        <path class="shaking" d="M1717.63 964.19 a58.07 58.07 0 1 0 116.14 0 a58.07 58.07 0 1 0 -116.14 0z" fill="rgba(255, 203, 101, 1)"></path>
    </g>
    <defs>
        <mask id="SvgjsMask1628">
            <rect width="1980" height="1000" fill="#ffffff"></rect>
        </mask>
    </defs>

    <g mask="url(&quot;#SvgjsMask1634&quot;)" fill="none">
        <path class="vibrating" d="M922.18 478.33a11.21 11.21 0 1 0 12.81-18.4z" fill="rgba(255, 203, 101, 1)"></path>
        <path class="boucing" d="M623.75 858.46L698.44 858.46L698.44 933.15L623.75 933.15z" stroke="rgba(222, 99, 128, 1)"></path>
        <path class="vibrating" d="M1449.21 95.01a95.99 95.99 0 1 0-182.51-59.53z" fill="rgba(129, 148, 212, 1)"></path>
        <path class="shaking" d="M1670.37 354.66 a49.65 49.65 0 1 0 99.3 0 a49.65 49.65 0 1 0 -99.3 0z" fill="rgba(255, 203, 101, 1)"></path>
        <path class="bouncing" d="M1774.52 45.38a95.98 95.98 0 1 0 190.22 25.82z" fill="rgba(222, 99, 128, 1)"></path>
        <path class="boucing" d="M208.83 513.97L300.03 513.97L300.03 553.51L208.83 553.51z" fill="rgba(222, 99, 128, 1)"></path>
        <path class="shaking" d="M258.81 934.54a26.29 26.29 0 1 0 21.85 47.82z" stroke="rgba(255, 203, 101, 1)"></path>
        <path class="vibrating" d="M758.72 873.15L838.44 873.15L838.44 912.8L758.72 912.8z" fill="rgba(222, 99, 128, 1)"></path>
        <path class="vibrating" d="M1308.64 21.49 a93.01 93.01 0 1 0 186.02 0 a93.01 93.01 0 1 0 -186.02 0z" fill="rgba(222, 99, 128, 1)"></path>
        <path class="shaking" d="M1239.28 420.43 a67.5 67.5 0 1 0 135 0 a67.5 67.5 0 1 0 -135 0z" fill="rgba(255, 203, 101, 1)"></path>
        <path class="boucing" d="M395.48 667.53L479.04 667.53L479.04 751.09L395.48 751.09z" fill="rgba(222, 99, 128, 1)"></path>
        <path class="shaking" d="M1389.19 437.71L1395.65 437.71L1395.65 444.17L1389.19 444.17z" stroke="rgba(136, 184, 106, 1)"></path>
        <path class="shaking" d="M553.18 114.62 a61.87 61.87 0 1 0 123.74 0 a61.87 61.87 0 1 0 -123.74 0z" stroke="rgba(129, 148, 212, 1)"></path>
        <path class="vibrating" d="M809.14 552.65L857.43 552.65L857.43 633.11L809.14 633.11z" stroke="rgba(136, 184, 106, 1)"></path>
        <path class="boucing" d="M174.27 333.53L201.8 333.53L201.8 376.9L174.27 376.9z" fill="rgba(129, 148, 212, 1)"></path>
        <path class="shaking" d="M907.94 98.74a89.96 89.96 0 1 0 178.76-20.46z" stroke="rgba(129, 148, 212, 1)"></path>
        <path class="bouncing" d="M1310.9 675.42a11.93 11.93 0 1 0 23.84-0.9z" fill="rgba(136, 184, 106, 1)"></path>
        <path class="shaking" d="M1553.94 801.28a6.19 6.19 0 1 0 5.48 11.1z" stroke="rgba(255, 203, 101, 1)"></path>
        <path class="boucing" d="M1011.13 885.89L1074.99 885.89L1074.99 961.93L1011.13 961.93z" stroke="rgba(129, 148, 212, 1)"></path>
        <path class="vibrating" d="M885.01 542.31L958.12 542.31L958.12 615.42L885.01 615.42z" stroke="rgba(136, 184, 106, 1)"></path>
        <path class="shaking" d="M491.96 287.3L564.4 287.3L564.4 350.06L491.96 350.06z" stroke="rgba(129, 148, 212, 1)"></path>
        <path class="vibrating" d="M1378.01 994.87a78.6 78.6 0 1 0-136.07-78.72z" fill="rgba(255, 203, 101, 1)"></path>
        <path class="boucing" d="M1614.65 714.49a83.26 83.26 0 1 0 139.88 90.34z" fill="rgba(222, 99, 128, 1)"></path>
        <path class="vibrating" d="M762.72 514.51L796.84 514.51L796.84 590.17L762.72 590.17z" fill="rgba(136, 184, 106, 1)"></path>
        <path class="shaking" d="M1211.71 819a76.46 76.46 0 1 0 146.48-43.93z" stroke="rgba(255, 203, 101, 1)"></path>
    </g>
    <defs>
        <mask id="SvgjsMask1634">
            <rect width="1980" height="1000" fill="#ffffff"></rect>
        </mask>
    </defs>

    <style>

        .bouncing{
            animation: bounce 10s ease-in-out 0s infinite normal forwards;

        }

        .vibrating{
            animation: vibrate 12s ease-in-out 0s infinite normal forwards;
        }

        .shaking{
            animation: shake 15s ease-in-out 0s infinite normal forwards;
        }

        @keyframes bounce {
            0%,
            100% {
                transform: translateX(0%);
                transform-origin: 50% 50%;
            }

            15% {
                transform: translateX(-30px) rotate(-6deg);
            }

            30% {
                transform: translateX(15px) rotate(6deg);
            }

            45% {
                transform: translateX(-15px) rotate(-3.6deg);
            }

            60% {
                transform: translateX(9px) rotate(2.4deg);
            }

            75% {
                transform: translateX(-6px) rotate(-1.2deg);
            }
        }

        @keyframes vibrate {
            0% {
                transform: translate(0);
            }
        
            10% {
                transform: translate(-2px, -2px);
            }
        
            20% {
                transform: translate(2px, -2px);
            }
        
            30% {
                transform: translate(-2px, 2px);
            }
        
            40% {
                transform: translate(2px, 2px);
            }
        
            50% {
                transform: translate(-2px, -2px);
            }
        
            60% {
                transform: translate(2px, -2px);
            }
        
            70% {
                transform: translate(-2px, 2px);
            }
        
            80% {
                transform: translate(-2px, -2px);
            }
        
            90% {
                transform: translate(2px, -2px);
            }
        
            100% {
                transform: translate(0);
            }
        }

        @keyframes shake {
            0% {
                animation-timing-function: ease-in;
                opacity: 1;
                transform: translateY(45px);
            }
        
            24% {
                opacity: 1;
            }
        
            40% {
                animation-timing-function: ease-in;
                transform: translateY(24px);
            }
        
            65% {
                animation-timing-function: ease-in;
                transform: translateY(12px);
            }
        
            82% {
                animation-timing-function: ease-in;
                transform: translateY(6px);
            }
        
            93% {
                animation-timing-function: ease-in;
                transform: translateY(4px);
            }
        
            25%,
            55%,
            75%,
            87% {
                animation-timing-function: ease-out;
                transform: translateY(0px);
            }
        
            100% {
                animation-timing-function: ease-out;
                opacity: 1;
                transform: translateY(0px);
            }
        }
    </style>
</svg>