<svg width="140" height="140" viewBox="0 0 140 140" fill="none" xmlns="http://www.w3.org/2000/svg">
<path d="M36.6667 96.6667H33.3333C29.7971 96.6667 26.4057 95.262 23.9052 92.7615C21.4048 90.261 20 86.8696 20 83.3334V70.0001C20 66.4639 21.4048 63.0725 23.9052 60.572C26.4057 58.0715 29.7971 56.6667 33.3333 56.6667H36.6667C37.5507 56.6667 38.3986 57.0179 39.0237 57.6431C39.6488 58.2682 40 59.116 40 60.0001V93.3334C40 94.2175 39.6488 95.0653 39.0237 95.6904C38.3986 96.3156 37.5507 96.6667 36.6667 96.6667Z" stroke="black" stroke-width="6" stroke-linecap="round" stroke-linejoin="round"/>
<path d="M106.667 96.6667H103.333C102.449 96.6667 101.601 96.3156 100.976 95.6904C100.351 95.0653 100 94.2175 100 93.3334V60.0001C100 59.116 100.351 58.2682 100.976 57.6431C101.601 57.0179 102.449 56.6667 103.333 56.6667H106.667C110.203 56.6667 113.594 58.0715 116.095 60.572C118.595 63.0725 120 66.4639 120 70.0001V83.3334C120 86.8696 118.595 90.261 116.095 92.7615C113.594 95.262 110.203 96.6667 106.667 96.6667Z" stroke="black" stroke-width="6" stroke-linecap="round" stroke-linejoin="round"/>
<path d="M33.335 56.6667C33.335 46.9421 37.198 37.6158 44.0744 30.7394C50.9507 23.8631 60.277 20 70.0016 20V20C79.7262 20 89.0525 23.8631 95.9289 30.7394C102.805 37.6158 106.668 46.9421 106.668 56.6667" stroke="black" stroke-width="6" stroke-linecap="round" stroke-linejoin="round"/>
<path d="M83.335 113.334H93.335C96.8712 113.334 100.263 111.929 102.763 109.428C105.264 106.928 106.668 103.537 106.668 100V96.667" stroke="black" stroke-width="6" stroke-linecap="round" stroke-linejoin="round"/>
<path d="M76.6683 120H70.0016C68.2335 120 66.5378 119.298 65.2876 118.048C64.0373 116.797 63.335 115.102 63.335 113.334C63.335 111.566 64.0373 109.87 65.2876 108.62C66.5378 107.369 68.2335 106.667 70.0016 106.667H76.6683C78.4364 106.667 80.1321 107.369 81.3823 108.62C82.6326 109.87 83.335 111.566 83.335 113.334C83.335 115.102 82.6326 116.797 81.3823 118.048C80.1321 119.298 78.4364 120 76.6683 120Z" stroke="black" stroke-width="6" stroke-linecap="round" stroke-linejoin="round"/>
</svg>
