<svg width="48" height="48" viewBox="0 0 48 48" fill="none" xmlns="http://www.w3.org/2000/svg">
<path d="M17.3333 29.3333H16.6667C15.9594 29.3333 15.2811 29.0523 14.781 28.5522C14.281 28.0521 14 27.3738 14 26.6666V23.9999C14 23.2927 14.281 22.6144 14.781 22.1143C15.2811 21.6142 15.9594 21.3333 16.6667 21.3333H17.3333C17.5101 21.3333 17.6797 21.4035 17.8047 21.5285C17.9298 21.6535 18 21.8231 18 21.9999V28.6666C18 28.8434 17.9298 29.013 17.8047 29.138C17.6797 29.263 17.5101 29.3333 17.3333 29.3333Z" stroke="black" stroke-width="2" stroke-linecap="round" stroke-linejoin="round"/>
<path d="M31.3333 29.3333H30.6667C30.4899 29.3333 30.3203 29.263 30.1953 29.138C30.0702 29.013 30 28.8434 30 28.6666V21.9999C30 21.8231 30.0702 21.6535 30.1953 21.5285C30.3203 21.4035 30.4899 21.3333 30.6667 21.3333H31.3333C32.0406 21.3333 32.7189 21.6142 33.219 22.1143C33.719 22.6144 34 23.2927 34 23.9999V26.6666C34 27.3738 33.719 28.0521 33.219 28.5522C32.7189 29.0523 32.0406 29.3333 31.3333 29.3333Z" stroke="black" stroke-width="2" stroke-linecap="round" stroke-linejoin="round"/>
<path d="M16.667 21.3333C16.667 19.3884 17.4396 17.5232 18.8149 16.1479C20.1901 14.7726 22.0554 14 24.0003 14V14C25.9452 14 27.8105 14.7726 29.1858 16.1479C30.561 17.5232 31.3337 19.3884 31.3337 21.3333" stroke="black" stroke-width="2" stroke-linecap="round" stroke-linejoin="round"/>
<path d="M26.667 32.6668H28.667C29.3742 32.6668 30.0525 32.3859 30.5526 31.8858C31.0527 31.3857 31.3337 30.7074 31.3337 30.0002V29.3335" stroke="black" stroke-width="2" stroke-linecap="round" stroke-linejoin="round"/>
<path d="M25.3337 34.0002H24.0003C23.6467 34.0002 23.3076 33.8597 23.0575 33.6096C22.8075 33.3596 22.667 33.0205 22.667 32.6668C22.667 32.3132 22.8075 31.9741 23.0575 31.724C23.3076 31.474 23.6467 31.3335 24.0003 31.3335H25.3337C25.6873 31.3335 26.0264 31.474 26.2765 31.724C26.5265 31.9741 26.667 32.3132 26.667 32.6668C26.667 33.0205 26.5265 33.3596 26.2765 33.6096C26.0264 33.8597 25.6873 34.0002 25.3337 34.0002Z" stroke="black" stroke-width="2" stroke-linecap="round" stroke-linejoin="round"/>
</svg>
