<svg width="48" height="48" viewBox="0 0 48 48" fill="none" xmlns="http://www.w3.org/2000/svg">
<path fill-rule="evenodd" clip-rule="evenodd" d="M32.6274 18.7453C34.49 18.7453 35.9999 17.2353 35.9999 15.3728C35.9999 13.5102 34.49 12.0002 32.6274 12.0002C30.7648 12.0002 29.2549 13.5102 29.2549 15.3728C29.2549 17.2353 30.7648 18.7453 32.6274 18.7453Z" fill="black"/>
<path fill-rule="evenodd" clip-rule="evenodd" d="M32.6274 27.2155C34.49 27.2155 35.9999 25.7056 35.9999 23.8431C35.9999 21.9806 34.49 20.4707 32.6274 20.4707C30.7648 20.4707 29.2549 21.9806 29.2549 23.8431C29.2549 25.7056 30.7648 27.2155 32.6274 27.2155Z" fill="black"/>
<path fill-rule="evenodd" clip-rule="evenodd" d="M32.6274 35.9999C34.49 35.9999 35.9999 34.49 35.9999 32.6274C35.9999 30.7648 34.49 29.2549 32.6274 29.2549C30.7648 29.2549 29.2549 30.7648 29.2549 32.6274C29.2549 34.49 30.7648 35.9999 32.6274 35.9999Z" fill="black"/>
<path fill-rule="evenodd" clip-rule="evenodd" d="M23.8436 27.2155C25.7061 27.2155 27.216 25.7056 27.216 23.8431C27.216 21.9806 25.7061 20.4707 23.8436 20.4707C21.9811 20.4707 20.4712 21.9806 20.4712 23.8431C20.4712 25.7056 21.9811 27.2155 23.8436 27.2155Z" fill="black"/>
<path fill-rule="evenodd" clip-rule="evenodd" d="M23.8431 35.9999C25.7056 35.9999 27.2155 34.49 27.2155 32.6274C27.2155 30.7648 25.7056 29.2549 23.8431 29.2549C21.9806 29.2549 20.4707 30.7648 20.4707 32.6274C20.4707 34.49 21.9806 35.9999 23.8431 35.9999Z" fill="black"/>
<path fill-rule="evenodd" clip-rule="evenodd" d="M15.3725 35.9999C17.2351 35.9999 18.745 34.49 18.745 32.6274C18.745 30.7648 17.2351 29.2549 15.3725 29.2549C13.5099 29.2549 12 30.7648 12 32.6274C12 34.49 13.5099 35.9999 15.3725 35.9999Z" fill="black"/>
</svg>
