<svg width="48" height="48" viewBox="0 0 48 48" fill="none" xmlns="http://www.w3.org/2000/svg">
<path d="M15.25 34V32.75C15.25 31.6009 15.4763 30.4631 15.9161 29.4015C16.3558 28.3399 17.0003 27.3753 17.8128 26.5628C18.6253 25.7503 19.5899 25.1058 20.6515 24.6661C21.7131 24.2263 22.8509 24 24 24C25.1491 24 26.2869 24.2263 27.3485 24.6661C28.4101 25.1058 29.3747 25.7503 30.1872 26.5628C30.9997 27.3753 31.6442 28.3399 32.0839 29.4015C32.5237 30.4631 32.75 31.6009 32.75 32.75V34" stroke="black" stroke-width="2" stroke-linecap="round" stroke-linejoin="round"/>
<path d="M24 24C25.3261 24 26.5979 23.4732 27.5355 22.5355C28.4732 21.5979 29 20.3261 29 19C29 17.6739 28.4732 16.4021 27.5355 15.4645C26.5979 14.5268 25.3261 14 24 14C22.6739 14 21.4021 14.5268 20.4645 15.4645C19.5268 16.4021 19 17.6739 19 19C19 20.3261 19.5268 21.5979 20.4645 22.5355C21.4021 23.4732 22.6739 24 24 24V24Z" stroke="black" stroke-width="2" stroke-linecap="round" stroke-linejoin="round"/>
</svg>
