<svg width="48" height="48" viewBox="0 0 48 48" fill="none" xmlns="http://www.w3.org/2000/svg">
<path d="M13.5352 34H34.4654" stroke="black" stroke-width="2" stroke-linecap="round" stroke-linejoin="round"/>
<path d="M17.794 23.7676H15.0033C14.8183 23.7676 14.6408 23.8411 14.51 23.9719C14.3792 24.1028 14.3057 24.2802 14.3057 24.4653V34.0001H18.4917V24.4653C18.4917 24.2802 18.4182 24.1028 18.2874 23.9719C18.1565 23.8411 17.9791 23.7676 17.794 23.7676Z" stroke="black" stroke-width="2" stroke-linecap="round" stroke-linejoin="round"/>
<path d="M25.3956 14H22.6049C22.4199 14 22.2424 14.0735 22.1116 14.2043C21.9807 14.3352 21.9072 14.5126 21.9072 14.6977V34H26.0933V14.6977C26.0933 14.5126 26.0198 14.3352 25.8889 14.2043C25.7581 14.0735 25.5806 14 25.3956 14Z" stroke="black" stroke-width="2" stroke-linecap="round" stroke-linejoin="round"/>
<path d="M32.9972 18.186H30.2065C30.0214 18.186 29.844 18.2595 29.7131 18.3904C29.5823 18.5212 29.5088 18.6987 29.5088 18.8837V34H33.6948V18.8837C33.6948 18.6987 33.6213 18.5212 33.4905 18.3904C33.3597 18.2595 33.1822 18.186 32.9972 18.186Z" stroke="black" stroke-width="2" stroke-linecap="round" stroke-linejoin="round"/>
</svg>
