<svg width="140" height="140" viewBox="0 0 140 140" fill="none" xmlns="http://www.w3.org/2000/svg">
<path d="M17.6758 120H122.327" stroke="black" stroke-width="6" stroke-linecap="round" stroke-linejoin="round"/>
<path d="M38.9702 68.8374H25.0167C24.0915 68.8374 23.2042 69.2049 22.55 69.8591C21.8958 70.5133 21.5283 71.4006 21.5283 72.3258V120H42.4586V72.3258C42.4586 71.4006 42.091 70.5133 41.4368 69.8591C40.7826 69.2049 39.8954 68.8374 38.9702 68.8374Z" stroke="black" stroke-width="6" stroke-linecap="round" stroke-linejoin="round"/>
<path d="M76.978 20H63.0245C62.0993 20 61.2121 20.3675 60.5579 21.0217C59.9037 21.6759 59.5361 22.5632 59.5361 23.4884V120H80.4664V23.4884C80.4664 22.5632 80.0988 21.6759 79.4446 21.0217C78.7904 20.3675 77.9032 20 76.978 20Z" stroke="black" stroke-width="6" stroke-linecap="round" stroke-linejoin="round"/>
<path d="M114.986 40.9302H101.032C100.107 40.9302 99.2199 41.2977 98.5657 41.9519C97.9115 42.6061 97.5439 43.4934 97.5439 44.4185V120H118.474V44.4185C118.474 43.4934 118.107 42.6061 117.452 41.9519C116.798 41.2977 115.911 40.9302 114.986 40.9302Z" stroke="black" stroke-width="6" stroke-linecap="round" stroke-linejoin="round"/>
</svg>
