<svg width="48" height="48" viewBox="0 0 48 48" fill="none" xmlns="http://www.w3.org/2000/svg">
<path d="M24.5953 25.899L21.2959 26.371L21.767 23.0707L30.2519 14.5858C30.627 14.2107 31.1357 14 31.6661 14C32.1965 14 32.7052 14.2107 33.0803 14.5858C33.4553 14.9608 33.666 15.4695 33.666 15.9999C33.666 16.5303 33.4553 17.039 33.0803 17.4141L24.5953 25.899Z" stroke="black" stroke-width="2" stroke-linecap="round" stroke-linejoin="round"/>
<path d="M30.3333 26.0004V32.6667C30.3333 33.0203 30.1928 33.3595 29.9428 33.6095C29.6927 33.8595 29.3536 34 29 34H15.6673C15.3137 34 14.9745 33.8595 14.7245 33.6095C14.4745 33.3595 14.334 33.0203 14.334 32.6667V19.334C14.334 18.9804 14.4745 18.6413 14.7245 18.3912C14.9745 18.1412 15.3137 18.0007 15.6673 18.0007H22.3336" stroke="black" stroke-width="2" stroke-linecap="round" stroke-linejoin="round"/>
</svg>
