<svg width="140" height="140" viewBox="0 0 140 140" fill="none" xmlns="http://www.w3.org/2000/svg">
<path d="M72.9765 79.4952L56.4795 81.855L58.8349 65.3536L101.26 22.9288C103.135 21.0535 105.678 20 108.33 20C110.983 20 113.526 21.0535 115.401 22.9288C117.277 24.8041 118.33 27.3475 118.33 29.9996C118.33 32.6517 117.277 35.1951 115.401 37.0704L72.9765 79.4952Z" stroke="black" stroke-width="6" stroke-linecap="round" stroke-linejoin="round"/>
<path d="M101.666 80.0019V113.334C101.666 115.102 100.964 116.797 99.7138 118.048C98.4636 119.298 96.768 120 94.9999 120H28.3363C26.5683 120 24.8726 119.298 23.6225 118.048C22.3723 116.797 21.6699 115.102 21.6699 113.334V46.67C21.6699 44.902 22.3723 43.2064 23.6225 41.9562C24.8726 40.706 26.5683 40.0037 28.3363 40.0037H61.6681" stroke="black" stroke-width="6" stroke-linecap="round" stroke-linejoin="round"/>
</svg>
