<svg width="1440" height="1024" viewBox="0 0 1440 1024" fill="none" xmlns="http://www.w3.org/2000/svg">
<g clip-path="url(#clip0_254_1522)">
<path d="M59.1809 1171.25C45.041 1183.37 24.2877 1167.46 11.1947 1159.66C-15.6268 1143.69 -42.3928 1119.84 -59.9733 1093.94C-111.007 1018.76 -145.3 924.208 -80.3732 847.405C-35.2726 794.054 47.4084 773.648 115.049 777.859C207.36 783.607 295.823 816.379 387.434 828.164C505.905 843.404 633.028 837.769 749.765 812.98C926.516 775.446 1102.6 711.22 1262.66 627.526C1315.06 600.128 1369.1 571.238 1415.2 533.872C1473.11 486.928 1519.94 427.286 1556.95 362.906C1587.7 309.425 1607.51 257.795 1619.66 197.389C1628.19 154.992 1637.38 112.673 1630.21 69.6572" stroke="#88B86A" stroke-width="25" stroke-linecap="round"/>
</g>
<defs>
<clipPath id="clip0_254_1522">
<rect width="1440" height="1024" fill="white"/>
</clipPath>
</defs>
</svg>
